<?xml version="1.0" standalone="no"?>
<!DOCTYPE svg PUBLIC "-//W3C//DTD SVG 20010904//EN"
 "http://www.w3.org/TR/2001/REC-SVG-20010904/DTD/svg10.dtd">
<svg version="1.0" xmlns="http://www.w3.org/2000/svg"
 width="516.000000pt" height="516.000000pt" viewBox="0 0 516.000000 516.000000"
 preserveAspectRatio="xMidYMid meet">
<metadata>
Created by potrace 1.11, written by Peter Selinger 2001-2013
</metadata>
<g transform="translate(0.000000,516.000000) scale(0.100000,-0.100000)"
fill="#000000" stroke="none">
<path d="M2548 5128 c-24 -33 -348 -679 -788 -1573 -133 -269 -288 -584 -345
-700 -56 -115 -185 -376 -285 -580 -100 -203 -295 -597 -432 -875 -661 -1335
-677 -1368 -658 -1380 7 -4 136 -9 288 -11 532 -7 4790 -4 4798 3 15 16 -12
73 -651 1363 -139 281 -293 593 -343 695 -49 102 -238 484 -419 850 -181 366
-372 752 -424 858 -339 695 -686 1377 -701 1380 -9 2 -26 -11 -40 -30z m50
-50 c11 -15 302 -595 442 -883 51 -104 231 -469 400 -810 170 -341 355 -717
413 -835 57 -118 275 -559 484 -980 472 -949 712 -1436 723 -1465 12 -32 0
-35 -155 -43 -172 -9 -4495 -9 -4650 0 -164 9 -172 14 -140 75 8 15 122 246
254 513 131 267 365 739 519 1050 154 311 350 709 436 885 87 176 313 635 505
1020 708 1427 737 1485 751 1485 4 0 12 -6 18 -12z"/>
<path d="M2569 2568 c-11 -4 -18 -12 -15 -16 3 -5 221 -8 486 -7 264 0 480 -1
481 -4 2 -7 7 -1120 8 -1538 1 -271 3 -313 16 -313 9 0 15 9 16 23 1 35 -3
1693 -5 1782 l-1 80 -483 0 c-266 0 -492 -3 -503 -7z"/>
<path d="M1630 1635 c0 -514 3 -936 8 -936 29 -5 976 -3 984 2 34 21 -39 25
-464 24 -255 0 -470 1 -479 3 -14 3 -16 91 -15 910 1 499 0 913 -2 920 -2 6
-10 12 -18 12 -12 0 -14 -142 -14 -935z"/>
<path d="M1115 292 l1 -137 68 -3 c48 -2 66 0 61 8 -4 6 -23 11 -44 10 -72 -4
-67 -12 -66 118 1 64 0 123 -3 130 -12 35 -17 -1 -17 -126z"/>
<path d="M2829 429 c-1 -2 -2 -66 -3 -142 l-1 -137 63 0 c34 0 62 4 62 10 0 6
-24 10 -54 10 l-53 0 0 125 c0 69 -3 129 -7 132 -3 4 -7 4 -7 2z"/>
<path d="M1394 401 c-8 -8 -4 -251 4 -251 5 0 8 29 7 65 l-1 65 43 0 c24 0 43
4 43 8 0 5 -15 8 -32 7 -50 -2 -54 2 -53 48 1 37 4 42 26 43 13 1 35 2 48 3
13 0 21 4 17 8 -7 8 -95 11 -102 4z"/>
<path d="M1570 402 c-6 -2 -10 -54 -10 -128 l0 -124 56 0 c36 0 53 4 49 10 -4
6 -14 10 -23 9 -63 -6 -67 -2 -66 53 l1 53 44 6 c40 5 35 10 -14 13 -25 1 -34
20 -29 60 4 32 6 34 40 33 19 -1 37 3 39 8 3 9 -64 14 -87 7z"/>
<path d="M2240 402 c-24 -8 -7 -20 25 -17 l35 2 0 -119 c0 -65 4 -118 9 -118
5 0 9 42 9 93 0 154 -2 147 30 145 15 -2 28 1 30 6 2 9 -116 15 -138 8z"/>
<path d="M3330 299 l0 -112 -76 102 c-42 55 -80 103 -85 107 -5 3 -9 -48 -9
-120 0 -69 4 -126 8 -126 5 0 8 48 7 106 l-1 106 28 -34 c15 -18 51 -65 80
-105 29 -40 56 -73 59 -73 9 0 7 250 -2 256 -5 3 -9 -45 -9 -107z"/>
<path d="M3440 403 c-12 -3 -15 -25 -15 -123 1 -65 4 -122 8 -126 10 -11 88
-6 119 7 74 30 76 175 3 223 -27 18 -81 26 -115 19z m100 -30 c36 -21 50 -52
50 -109 0 -34 -6 -51 -25 -69 -24 -25 -30 -26 -91 -29 l-31 -1 2 110 c2 60 3
111 4 113 4 9 68 -1 91 -15z"/>
<path d="M3694 400 c-48 -19 -40 -69 21 -127 47 -46 55 -71 29 -97 -18 -18
-38 -20 -64 -6 -13 7 -21 7 -25 0 -9 -14 36 -29 69 -23 35 7 59 43 51 76 -4
13 -26 43 -51 67 -52 49 -59 86 -19 96 14 3 34 4 45 1 24 -6 27 8 4 17 -20 8
-34 7 -60 -4z"/>
<path d="M1290 275 c0 -77 4 -125 10 -125 6 0 10 48 10 125 0 77 -4 125 -10
125 -6 0 -10 -48 -10 -125z"/>
<path d="M1820 388 c0 -31 72 -240 80 -232 4 5 22 53 40 107 18 54 34 97 35
95 2 -2 6 -15 9 -28 10 -51 51 -180 57 -180 3 0 20 49 37 109 17 59 34 116 38
125 3 9 2 16 -4 16 -5 0 -23 -48 -39 -107 l-30 -107 -16 49 c-8 28 -23 76 -33
108 -9 32 -20 54 -24 50 -4 -4 -22 -52 -40 -106 -18 -54 -33 -97 -35 -95 -2 2
-15 46 -30 98 -26 91 -45 133 -45 98z"/>
<path d="M2166 280 c0 -66 4 -123 7 -127 8 -7 8 -5 8 122 1 118 0 125 -9 125
-4 0 -7 -54 -6 -120z"/>
<path d="M2435 280 c1 -65 4 -122 8 -126 4 -4 7 2 8 14 0 12 2 41 2 65 l2 42
55 2 c95 3 96 2 94 -67 0 -33 3 -60 7 -60 5 0 9 56 9 125 0 69 -4 125 -9 125
-5 0 -8 -20 -7 -46 1 -25 -3 -49 -9 -53 -5 -4 -35 -7 -65 -6 -79 3 -81 4 -79
18 4 30 -2 87 -8 87 -5 0 -8 -54 -8 -120z"/>
<path d="M2940 395 c0 -3 16 -38 37 -78 33 -65 39 -88 42 -151 2 -34 11 -11
14 35 2 25 20 76 41 118 20 40 34 76 31 79 -7 7 -8 5 -47 -71 l-34 -68 -33 70
c-18 39 -37 71 -42 71 -5 0 -9 -2 -9 -5z"/>
<path d="M3870 338 c-13 -35 -34 -91 -46 -125 -13 -35 -19 -63 -14 -63 4 0 16
20 25 44 17 43 18 44 64 44 46 1 48 0 62 -40 9 -23 20 -43 26 -45 5 -2 -10 53
-35 122 -25 69 -49 125 -52 125 -4 0 -18 -28 -30 -62z m64 -63 c5 -18 1 -20
-34 -20 -22 0 -40 2 -40 4 0 2 8 28 18 58 l17 54 16 -38 c9 -21 20 -47 23 -58z"/>
<path d="M4020 320 c29 -58 40 -92 40 -125 0 -25 4 -45 8 -45 5 0 8 19 8 43
-1 30 10 65 41 125 23 46 37 82 31 80 -6 -2 -25 -32 -42 -66 -17 -34 -33 -62
-36 -62 -3 0 -20 29 -38 65 -17 36 -36 65 -42 65 -6 0 8 -36 30 -80z"/>
</g>
</svg>
